<?xml version="1.0" encoding="utf-8"?>
<!-- Generator: Adobe Illustrator 27.9.0, SVG Export Plug-In . SVG Version: 6.00 Build 0)  -->
<svg version="1.1" id="Layer_1" xmlns="http://www.w3.org/2000/svg" xmlns:xlink="http://www.w3.org/1999/xlink" x="0px" y="0px"
	 viewBox="0 0 1000 1000" style="enable-background:new 0 0 1000 1000;" xml:space="preserve">
<style type="text/css">
	.st0{fill:url(#SVGID_1_);}
	.st1{fill:url(#SVGID_00000111904521885302184280000011897102747203991474_);}
</style>
<g>
	<linearGradient id="SVGID_1_" gradientUnits="userSpaceOnUse" x1="161.9841" y1="481.7798" x2="822.9745" y2="481.7798">
		<stop  offset="0.1293" style="stop-color:#AD2876"/>
		<stop  offset="0.2609" style="stop-color:#AE2A77"/>
		<stop  offset="0.3082" style="stop-color:#B0317C"/>
		<stop  offset="0.342" style="stop-color:#B53C83"/>
		<stop  offset="0.3694" style="stop-color:#BB4D8E"/>
		<stop  offset="0.3927" style="stop-color:#C4639C"/>
		<stop  offset="0.4135" style="stop-color:#CE7FAD"/>
		<stop  offset="0.4322" style="stop-color:#DA9FC2"/>
		<stop  offset="0.4494" style="stop-color:#E9C5DA"/>
		<stop  offset="0.4648" style="stop-color:#F8EEF4"/>
		<stop  offset="0.4704" style="stop-color:#FFFFFF"/>
		<stop  offset="0.4728" style="stop-color:#FBF6F9"/>
		<stop  offset="0.4855" style="stop-color:#EAC8DC"/>
		<stop  offset="0.4999" style="stop-color:#DA9DC1"/>
		<stop  offset="0.5153" style="stop-color:#CB77A9"/>
		<stop  offset="0.5321" style="stop-color:#BF5794"/>
		<stop  offset="0.5507" style="stop-color:#B53B83"/>
		<stop  offset="0.5717" style="stop-color:#AC2575"/>
		<stop  offset="0.5962" style="stop-color:#A6146A"/>
		<stop  offset="0.6265" style="stop-color:#A10963"/>
		<stop  offset="0.6689" style="stop-color:#9F025E"/>
		<stop  offset="0.7869" style="stop-color:#9E005D"/>
	</linearGradient>
	<path class="st0" d="M729,230.84c26.89,14.69,51.85,24.97,72.41,40.92c11.03,8.56,20.27,26.79,20.47,40.81
		c1.63,112.52,1,225.08,0.84,337.62c-0.03,20.94-9.9,36.95-28.16,46.79c-93.98,50.64-188.14,100.96-282.24,151.38
		c-14.17,7.59-28.49,7.48-42.53-0.06c-92.99-49.96-186.04-99.81-278.78-150.24c-19.26-10.47-29.02-27.72-28.99-50.31
		c0.14-110.69,0.18-221.38-0.05-332.07c-0.06-27.9,15.92-44.14,38.42-56.24c53.28-28.65,106.58-57.26,159.86-85.91
		c34.8-18.71,69.79-37.07,104.25-56.4c17.92-10.05,34.31-10.12,52.34-0.01c42.53,23.84,85.74,46.46,128.33,70.2
		c4.96,2.77,10.85,9.37,11.01,14.36c0.98,32.64,0.51,65.32,0.51,101.31c-39.92-21.51-79.36-38.52-113.94-62.54
		c-36.96-25.66-67.09-24.3-104.73-0.6c-54.2,34.12-112.18,62.27-168.85,92.4c-9.98,5.31-13.86,11.27-13.78,22.86
		c0.6,84.71,0.64,169.43,0.2,254.15c-0.06,10.82,3.27,16.48,12.74,21.52c70.82,37.75,141.22,76.3,212.18,113.8
		c5.81,3.07,16.12,2.88,21.99-0.23c72.59-38.35,144.9-77.25,216.72-117.04c5.46-3.03,9.33-13.8,9.38-20.99
		c0.61-96.46,0.41-192.93,0.41-289.4C729,289.74,729,262.56,729,230.84z"/>
	
		<linearGradient id="SVGID_00000114063465663813996940000001270995352522275468_" gradientUnits="userSpaceOnUse" x1="395.2727" y1="596.0593" x2="658.8693" y2="596.0593">
		<stop  offset="0.1293" style="stop-color:#AD2876"/>
		<stop  offset="0.2609" style="stop-color:#AE2A77"/>
		<stop  offset="0.3082" style="stop-color:#B0317C"/>
		<stop  offset="0.342" style="stop-color:#B53C83"/>
		<stop  offset="0.3694" style="stop-color:#BB4D8E"/>
		<stop  offset="0.3927" style="stop-color:#C4639C"/>
		<stop  offset="0.4135" style="stop-color:#CE7FAD"/>
		<stop  offset="0.4322" style="stop-color:#DA9FC2"/>
		<stop  offset="0.4494" style="stop-color:#E9C5DA"/>
		<stop  offset="0.4648" style="stop-color:#F8EEF4"/>
		<stop  offset="0.4704" style="stop-color:#FFFFFF"/>
		<stop  offset="0.4728" style="stop-color:#FBF6F9"/>
		<stop  offset="0.4855" style="stop-color:#EAC8DC"/>
		<stop  offset="0.4999" style="stop-color:#DA9DC1"/>
		<stop  offset="0.5153" style="stop-color:#CB77A9"/>
		<stop  offset="0.5321" style="stop-color:#BF5794"/>
		<stop  offset="0.5507" style="stop-color:#B53B83"/>
		<stop  offset="0.5717" style="stop-color:#AC2575"/>
		<stop  offset="0.5962" style="stop-color:#A6146A"/>
		<stop  offset="0.6265" style="stop-color:#A10963"/>
		<stop  offset="0.6689" style="stop-color:#9F025E"/>
		<stop  offset="0.7869" style="stop-color:#9E005D"/>
	</linearGradient>
	<path style="fill:url(#SVGID_00000114063465663813996940000001270995352522275468_);" d="M397.85,564.15
		c21.62,11.57,41.6,20.88,60.11,32.54c21.34,13.44,40.93,12.49,62.38,0.34c35.38-20.03,71.51-38.72,107.37-57.9
		c8.61-4.61,17.39-8.92,26.29-13.47c11.76,39.92,2.68,62.46-31.85,80.81c-29.36,15.61-59.11,30.54-88.1,46.81
		c-30.05,16.88-59.42,18.22-89.15,0.01c-1.05-0.64-2.25-1.01-3.35-1.58C392.06,626,392.06,626,397.85,564.15z"/>
</g>
</svg>
